<svg xmlns="http://www.w3.org/2000/svg" xmlns:xlink="http://www.w3.org/1999/xlink" viewBox="0 0 400.9 595.59"><defs><style>.cls-1{fill:url(#New_Gradient_Swatch);}.cls-2,.cls-3{fill:none;stroke-miterlimit:10;}.cls-2{stroke:#f2f2f2;stroke-width:2px;}.cls-3{stroke:#fff;}.cls-4{fill:#1a1a1a;}</style><linearGradient id="New_Gradient_Swatch" x1="84.68" y1="76.84" x2="362.27" y2="557.64" gradientUnits="userSpaceOnUse"><stop offset="0" stop-color="#00dead"/><stop offset="1" stop-color="#00abad"/></linearGradient></defs><title>Asset 5</title><g id="Layer_2" data-name="Layer 2"><g id="Layer_1-2" data-name="Layer 1"><path class="cls-1" d="M103,195.19.5,297.91,103,400.4l.12-.11L297.73,594.91h0C133.29,594.91,0,461.73,0,297.45S133.29,0,297.71,0h.7l-.5.5L103.11,195.31Z"/><line class="cls-2" x1="51.96" y1="439.5" x2="82.27" y2="422"/><line class="cls-2" x1="155.91" y1="543.45" x2="173.41" y2="513.14"/><line class="cls-2" x1="155.91" y1="51.55" x2="173.41" y2="81.86"/><line class="cls-2" x1="51.96" y1="155.5" x2="82.27" y2="173"/><line class="cls-3" x1="19.44" y1="326.77" x2="35.36" y2="325.1"/><line class="cls-3" x1="24.03" y1="355.72" x2="39.68" y2="352.39"/><line class="cls-3" x1="31.61" y1="384.02" x2="46.83" y2="379.08"/><line class="cls-3" x1="42.12" y1="411.39" x2="56.73" y2="404.88"/><line class="cls-3" x1="71.39" y1="462.08" x2="84.33" y2="452.68"/><line class="cls-3" x1="89.83" y1="484.86" x2="101.72" y2="474.15"/><line class="cls-3" x1="110.55" y1="505.58" x2="121.26" y2="493.69"/><line class="cls-3" x1="133.33" y1="524.02" x2="142.73" y2="511.08"/><line class="cls-3" x1="184.02" y1="553.29" x2="190.53" y2="538.68"/><line class="cls-3" x1="211.39" y1="563.8" x2="216.33" y2="548.58"/><line class="cls-3" x1="239.69" y1="571.38" x2="243.02" y2="555.73"/><line class="cls-3" x1="268.64" y1="575.97" x2="270.31" y2="560.05"/><line class="cls-3" x1="268.64" y1="19.03" x2="270.31" y2="34.95"/><line class="cls-3" x1="239.69" y1="23.62" x2="243.02" y2="39.27"/><line class="cls-3" x1="211.39" y1="31.2" x2="216.33" y2="46.42"/><line class="cls-3" x1="184.02" y1="41.71" x2="190.53" y2="56.32"/><line class="cls-3" x1="133.33" y1="70.98" x2="142.73" y2="83.92"/><line class="cls-3" x1="110.55" y1="89.42" x2="121.26" y2="101.31"/><line class="cls-3" x1="89.83" y1="110.14" x2="101.72" y2="120.85"/><line class="cls-3" x1="71.39" y1="132.92" x2="84.33" y2="142.32"/><line class="cls-3" x1="42.12" y1="183.61" x2="56.73" y2="190.12"/><line class="cls-3" x1="31.61" y1="210.98" x2="46.83" y2="215.92"/><line class="cls-3" x1="24.03" y1="239.28" x2="39.68" y2="242.61"/><line class="cls-3" x1="19.44" y1="268.23" x2="35.36" y2="269.9"/><polygon class="cls-4" points="255.78 282.3 400.72 282.3 400.72 492.92 299.09 594.9 298.41 595.59 103.11 400.29 102.99 400.4 0.5 297.91 102.99 195.19 103.11 195.31 297.91 0.5 298.41 0 400.9 102.49 205.6 297.8 255.78 347.98 255.78 282.3"/></g></g></svg>